<svg version="1.2" xmlns="http://www.w3.org/2000/svg" viewBox="0 0 128 128" width="128" height="128">
	<style>
		.s0 { fill: #f60000 } 
	</style>
	<path id="Path 0" fill-rule="evenodd" class="s0" d="m124.74 43.61l-29.91 69.16-7.48-15.89-8.87 9.81-16.36 7.95-16.35 1.4-13.55-3.74-11.69-7.48-12.61-16.35-4.67-15.89 0.46-17.29 5.61-15.88 11.68-14.49 15.89-8.88 12.15-1.87-0.47-2.33h1.4l15.42 6.07 4.21 6.54 8.88 6.08 1.87 6.54-15.89-4.67-14.49 1.87 1.87-3.28-6.07-0.93-11.22 5.14-9.81 10.75-5.14 17.75 1.87 16.83 7.01 13.55 14.95 11.21 8.88 2.8 9.34-0.46-28.03-64.49h15.89l14.48 33.65 15.42-33.65 15.89 33.18 14.02-33.18 15.42-0.46zm-63.55-18.69h4.2l-6.07-3.28zm5.61 82.24l9.34-2.8 10.28-8.41-7.48-17.76z"/>
</svg>